<svg xmlns="http://www.w3.org/2000/svg" width="1440" height="900" viewBox="0 0 1440 900">
  <rect width="1440" height="900" fill="#f5f7f8"/><style>.t{font-family:'Segoe UI','Microsoft YaHei',sans-serif;fill:#22303a}.m{font-family:'Segoe UI','Microsoft YaHei',sans-serif;fill:#687680}.s{font-family:'Segoe UI','Microsoft YaHei',sans-serif;fill:#81909a;font-size:13px}.mono{font-family:Consolas,monospace;fill:#65727b;font-size:13px}.line{stroke:#d7dee2;stroke-width:1}.panel{fill:#fff;stroke:#d7dee2;stroke-width:1}.accent{fill:#176f71}.teal{fill:#2a9b8d}</style>
  <rect width="1440" height="58" fill="#ffffff"/><line x1="0" y1="58" x2="1440" y2="58" class="line"/><text x="26" y="36" class="t" font-size="20" font-weight="700">KAnim Studio</text><text x="182" y="35" class="m" font-size="13">资源转换与预览</text><text x="1342" y="36" class="m" font-size="14">⌘</text><text x="1388" y="36" class="m" font-size="14">?</text>
  <rect x="0" y="58" width="88" height="842" fill="#edf2f3"/><rect x="0" y="100" width="4" height="64" class="accent"/><g font-family="Segoe UI,Microsoft YaHei,sans-serif" text-anchor="middle"><text x="44" y="90" class="accent" font-size="16">◆</text><text x="44" y="122" class="t" font-size="13">转换</text><text x="44" y="200" class="m" font-size="13">◈</text><text x="44" y="224" class="m" font-size="13">预览</text><text x="44" y="300" class="m" font-size="13">⌘</text><text x="44" y="324" class="m" font-size="13">资源桥</text><text x="44" y="842" class="m" font-size="13">⚙</text><text x="44" y="866" class="m" font-size="13">设置</text></g>
  <text x="122" y="105" class="t" font-size="24" font-weight="700">KAnim → SCML</text><rect x="1110" y="80" width="234" height="34" rx="8" fill="#e8eff0"/><rect x="1112" y="82" width="112" height="30" rx="7" class="accent"/><text x="1168" y="102" fill="#fff" font-size="12" text-anchor="middle">KAnim → SCML</text><text x="1280" y="102" class="m" font-size="12" text-anchor="middle">SCML → KAnim</text>
  <rect x="122" y="140" width="820" height="430" rx="10" class="panel"/><text x="150" y="181" class="t" font-size="18" font-weight="700">添加 KAnim 文件</text><text x="150" y="207" class="m" font-size="13">拖入 PNG、_anim.bytes、_build.bytes，或选择文件</text><rect x="150" y="232" width="764" height="56" rx="7" fill="#f2f6f6"/><rect x="150" y="300" width="764" height="56" rx="7" fill="#f2f6f6"/><rect x="150" y="368" width="764" height="56" rx="7" fill="#f2f6f6"/><g font-family="Segoe UI,Microsoft YaHei,sans-serif"><text x="178" y="266" class="t" font-size="14">▣</text><text x="211" y="260" class="t" font-size="14">hatch.png</text><text x="211" y="279" class="s">纹理图像</text><circle cx="834" cy="260" r="5" class="teal"/><text x="850" y="265" class="teal" font-size="12">已就绪</text><text x="888" y="265" class="m" font-size="15">×</text><text x="178" y="334" class="t" font-size="14">▤</text><text x="211" y="328" class="t" font-size="14">hatch_anim.bytes</text><text x="211" y="347" class="s">动画数据</text><circle cx="834" cy="328" r="5" class="teal"/><text x="850" y="333" class="teal" font-size="12">已就绪</text><text x="888" y="333" class="m" font-size="15">×</text><text x="178" y="402" class="t" font-size="14">▥</text><text x="211" y="396" class="t" font-size="14">hatch_build.bytes</text><text x="211" y="415" class="s">构建数据</text><circle cx="834" cy="396" r="5" class="teal"/><text x="850" y="401" class="teal" font-size="12">已就绪</text><text x="888" y="401" class="m" font-size="15">×</text></g><line x1="150" y1="454" x2="914" y2="454" class="line"/><text x="150" y="488" class="m" font-size="13">输出到</text><text x="224" y="488" class="t" font-size="13">D:\\Mods\\MyAnimation\\export</text><rect x="794" y="465" width="120" height="32" rx="6" fill="#edf2f3"/><text x="854" y="486" class="m" font-size="12" text-anchor="middle">更改</text><text x="150" y="530" class="m" font-size="13">⌄  高级选项</text><text x="300" y="530" class="m" font-size="13">□ 严格模式</text><text x="430" y="530" class="m" font-size="13">□ 严格文件顺序</text>
  <rect x="122" y="592" width="820" height="82" rx="10" class="panel"/><text x="150" y="628" class="t" font-size="15" font-weight="700">运行日志</text><text x="150" y="652" class="mono">[就绪] 已匹配 1 组 KAnim 资源</text><text x="480" y="652" class="mono">[提示] 可开始转换</text><text x="888" y="628" class="m" font-size="12" text-anchor="end">清空</text><rect x="122" y="700" width="820" height="48" rx="8" class="accent"/><text x="532" y="730" fill="#fff" font-size="16" font-weight="700" text-anchor="middle">开始转换</text><rect x="766" y="700" width="176" height="48" rx="8" fill="#edf2f3"/><text x="854" y="730" class="t" font-size="14" text-anchor="middle">批量转换</text>
  <rect x="970" y="140" width="374" height="534" rx="10" class="panel"/><text x="998" y="181" class="t" font-size="18" font-weight="700">资源预览</text><rect x="998" y="205" width="318" height="260" rx="8" fill="#f0f4f4"/><path d="M998 270h318M998 335h318M998 400h318M1062 205v260M1126 205v260M1190 205v260M1254 205v260" stroke="#d9e1e2"/><ellipse cx="1156" cy="333" rx="58" ry="39" fill="#efad5b"/><circle cx="1138" cy="321" r="8" fill="#34424a"/><circle cx="1178" cy="321" r="8" fill="#34424a"/><path d="M1120 362q36 21 72 0" fill="none" stroke="#aa7040" stroke-width="7"/><path d="M1156 273v120M1096 333h120" stroke="#2a9b8d" stroke-width="1" opacity=".7"/><text x="998" y="497" class="t" font-size="14">hatch · idle_loop</text><text x="998" y="526" class="m" font-size="12">◀　▶　●　 12 / 24</text><line x1="998" y1="544" x2="1316" y2="544" stroke="#d7dee2" stroke-width="5"/><line x1="998" y1="544" x2="1168" y2="544" stroke="#176f71" stroke-width="5"/><circle cx="1168" cy="544" r="6" class="accent"/><line x1="998" y1="572" x2="1316" y2="572" class="line"/><text x="998" y="612" class="t" font-size="16" font-weight="700">转换摘要</text><text x="998" y="640" class="m" font-size="13">输入</text><text x="1290" y="640" class="t" font-size="13" text-anchor="end">3 个文件</text><text x="998" y="666" class="m" font-size="13">输出</text><text x="1290" y="666" class="t" font-size="13" text-anchor="end">SCML + 18 张纹理</text>
  <rect y="866" width="1440" height="34" fill="#edf2f3"/><text x="122" y="888" class="s">内置转换内核可用</text><text x="1344" y="888" class="s" text-anchor="end">KAnim GUI 1.0.2</text>
</svg>
